<svg xmlns="http://www.w3.org/2000/svg" width="32" height="32" viewBox="0 0 32 32">
    <g fill="none" fill-rule="evenodd">
        <g fill="#192325" fill-rule="nonzero">
            <g>
                <g>
                    <g>
                        <g>
                            <path d="M20.858 6.485l3.908 6.514L28 13c.552 0 1 .448 1 1s-.448 1-1 1h-1.831l-2.185 12.177c-.085.476-.5.823-.984.823H9c-.484 0-.899-.347-.984-.823L5.83 14.999 4 15c-.552 0-1-.448-1-1s.448-1 1-1h3.233l3.91-6.515c.284-.474.898-.627 1.371-.343.474.284.628.898.344 1.372l-3.292 5.485h12.867l-3.29-5.485c-.285-.474-.131-1.088.343-1.372.473-.284 1.087-.13 1.372.343zm3.279 8.514H7.862L9.837 26h12.326l1.974-11z" transform="translate(-1199 -321) translate(970 311) translate(227 8) translate(2 2)"/>
                        </g>
                    </g>
                </g>
            </g>
        </g>
    </g>
</svg>
