<svg xmlns="http://www.w3.org/2000/svg" width="32" height="32" viewBox="0 0 32 32">
    <g fill="none" fill-rule="evenodd">
        <g fill="#192325" fill-rule="nonzero">
            <g>
                <g>
                    <g>
                        <g>
                            <path d="M26 22c.552 0 1 .448 1 1s-.448 1-1 1H6c-.552 0-1-.448-1-1s.448-1 1-1h20zm0-7c.552 0 1 .448 1 1s-.448 1-1 1H6c-.552 0-1-.448-1-1s.448-1 1-1h20zm0-7c.552 0 1 .448 1 1s-.448 1-1 1H6c-.552 0-1-.448-1-1s.448-1 1-1h20z" transform="translate(-1547 -310) translate(907 294) translate(385 12) translate(247 4) translate(8)"/>
                        </g>
                    </g>
                </g>
            </g>
        </g>
    </g>
</svg>
